<?xml version="1.0" standalone="no"?>
<!DOCTYPE svg PUBLIC "-//W3C//DTD SVG 20010904//EN"
 "http://www.w3.org/TR/2001/REC-SVG-20010904/DTD/svg10.dtd">
<svg version="1.0" xmlns="http://www.w3.org/2000/svg" width="512.000000pt" height="512.000000pt" viewBox="0 0 512.000000 512.000000" preserveAspectRatio="xMidYMid meet">

<g transform="translate(0.000000,512.000000) scale(0.100000,-0.100000)" fill="#000000" stroke="none">
<path d="M2463 5106 c-106 -34 -197 -117 -232 -210 l-19 -51 -690 -5 c-661 -5
-691 -6 -711 -24 -31 -28 -28 -79 5 -105 24 -19 40 -21 175 -21 l149 0 0 -72
0 -72 -362 -689 c-309 -587 -367 -691 -393 -704 -43 -22 -65 -53 -65 -94 0
-47 185 -375 227 -401 26 -17 76 -18 673 -18 515 1 650 3 669 14 14 8 66 86
127 192 119 206 124 226 70 280 -19 19 -40 34 -48 34 -7 1 -175 309 -380 701
l-368 700 0 65 0 64 461 -2 461 -3 21 -55 c27 -73 111 -158 190 -190 l57 -24
0 -128 0 -128 -60 0 c-51 0 -64 -4 -90 -27 -19 -17 -35 -44 -40 -68 -6 -23
-10 -415 -10 -911 l0 -872 -37 -7 c-84 -16 -153 -68 -193 -148 -28 -56 -30
-68 -30 -169 l0 -108 -86 0 c-109 0 -154 -13 -210 -63 -71 -63 -78 -83 -84
-242 l-5 -140 -555 -5 c-603 -6 -582 -4 -701 -66 -341 -178 -422 -636 -163
-922 70 -78 148 -129 254 -166 85 -30 85 -30 348 -34 l262 -4 0 -64 c0 -77 18
-116 60 -134 46 -19 80 -7 183 65 52 36 98 65 102 65 4 0 54 -31 111 -70 106
-70 135 -80 177 -59 44 23 57 50 57 127 l0 72 1610 0 c1158 0 1616 3 1633 11
24 11 47 47 47 73 0 7 -9 25 -21 40 -19 25 -25 26 -115 26 l-94 0 0 444 0 444
91 4 c85 4 94 6 115 32 29 33 30 56 3 90 l-20 26 -767 2 -767 3 -5 140 c-6
159 -13 179 -84 242 -56 50 -101 63 -210 63 l-86 0 0 108 c0 91 -4 114 -24
157 -39 84 -113 144 -199 160 l-36 7 -3 618 c-3 591 -4 619 -22 639 -11 12
-27 21 -38 21 -16 0 -18 10 -18 105 0 95 2 105 18 105 38 0 55 36 60 125 7
134 -4 193 -43 232 -30 30 -38 33 -94 33 l-61 0 0 128 0 128 58 24 c78 32 162
117 189 190 l21 55 461 3 461 2 0 -64 0 -65 -367 -700 c-206 -392 -374 -700
-381 -701 -8 0 -29 -15 -48 -34 -54 -54 -49 -74 70 -280 61 -106 113 -184 127
-192 30 -17 769 -20 799 -4 10 5 24 26 30 46 11 32 10 39 -7 63 l-20 26 -165
3 -164 2 -61 108 -62 107 260 3 c143 1 375 1 515 0 l254 -3 -62 -107 -61 -107
-95 -3 c-89 -3 -96 -5 -115 -29 -17 -24 -18 -31 -7 -63 6 -20 20 -41 30 -46
10 -6 70 -10 132 -10 90 0 119 4 141 18 42 26 227 354 227 401 0 41 -22 72
-65 94 -26 13 -84 117 -392 704 l-363 689 0 72 0 72 149 0 c135 0 151 2 175
21 33 26 36 77 5 105 -20 18 -50 19 -711 24 l-690 5 -20 52 c-45 121 -175 213
-311 219 -43 3 -89 -2 -114 -10z m-889 -1406 c146 -278 268 -513 272 -522 6
-17 -11 -18 -275 -18 l-281 0 0 532 c0 321 4 528 9 523 5 -6 129 -237 275
-515z m2256 -10 l0 -530 -281 0 c-264 0 -281 1 -275 18 7 17 437 838 508 970
22 39 42 72 44 72 2 0 4 -238 4 -530z m-2693 -527 c-2 -2 -128 -2 -279 -1
l-275 3 276 525 276 525 3 -524 c1 -288 1 -526 -1 -528z m3093 587 c128 -245
251 -478 272 -517 l40 -73 -281 0 -281 0 0 527 c0 290 4 523 8 518 5 -6 114
-210 242 -455z m-2330 -792 c-17 -29 -45 -79 -63 -110 l-32 -58 -417 0 -417 0
-56 95 c-30 52 -58 102 -61 110 -5 13 57 15 535 15 l541 0 -30 -52z m630
-1646 c0 -11 9 -27 21 -38 20 -18 55 -19 1075 -22 l1054 -2 0 -90 0 -90 -825
0 c-812 0 -825 0 -845 -20 -30 -30 -27 -83 6 -109 27 -21 32 -21 845 -21 l819
0 0 -110 0 -110 -819 0 c-813 0 -818 0 -845 -21 -33 -26 -36 -79 -6 -109 20
-20 33 -20 845 -20 l825 0 0 -95 0 -95 -1452 2 -1453 3 -3 278 -2 277 330 0
331 0 24 25 c31 30 32 71 3 102 l-21 23 -711 0 -710 0 -23 -22 c-48 -45 -11
-128 57 -128 l30 0 -2 -277 -3 -278 -43 2 c-60 3 -122 41 -152 95 -25 43 -25
46 -28 325 -2 183 1 296 8 322 11 43 57 103 94 124 16 9 188 13 672 17 623 5
653 6 673 24 12 11 21 27 21 38 0 16 10 18 105 18 95 0 105 -2 105 -18z"></path>
</g>
</svg>
